<svg width="1600" height="960" viewBox="0 0 1600 960" fill="none" xmlns="http://www.w3.org/2000/svg">
  <rect width="1600" height="960" fill="#D6E1E8"/>
  <rect width="1600" height="540" fill="#EEF3F6"/>
  <rect y="540" width="1600" height="420" fill="#C5B9A7"/>
  <rect x="110" y="86" width="530" height="320" rx="18" fill="#F8FBFD"/>
  <rect x="960" y="110" width="440" height="250" rx="20" fill="#C0D6E7"/>
  <rect x="980" y="130" width="400" height="210" rx="12" fill="#8EB3CC"/>
  <rect x="430" y="448" width="760" height="238" rx="44" fill="#7A4F3C"/>
  <rect x="470" y="484" width="680" height="36" rx="18" fill="#A97A60"/>
  <rect x="520" y="676" width="40" height="180" rx="16" fill="#554037"/>
  <rect x="1040" y="676" width="40" height="180" rx="16" fill="#554037"/>
  <rect x="330" y="530" width="96" height="220" rx="24" fill="#374854"/>
  <rect x="1174" y="530" width="96" height="220" rx="24" fill="#374854"/>
  <rect x="618" y="248" width="122" height="182" rx="20" fill="#ECE4D4"/>
  <rect x="762" y="248" width="122" height="182" rx="20" fill="#ECE4D4"/>
  <rect x="906" y="248" width="122" height="182" rx="20" fill="#ECE4D4"/>
  <circle cx="374" cy="232" r="64" fill="#7EB29D"/>
  <rect x="362" y="288" width="24" height="118" rx="12" fill="#6B5747"/>
  <rect x="180" y="146" width="190" height="118" rx="16" fill="#D7E4C6"/>
  <rect x="210" y="176" width="130" height="58" rx="12" fill="#EFF6E6"/>
</svg>
